<!-- icon666.com - MILLIONS vector ICONS FREE --><svg id="Layer_3" enable-background="new 0 0 64 64" viewBox="0 0 64 64" xmlns="http://www.w3.org/2000/svg"><g><path d="m62 1h-60c-.552 0-1 .447-1 1v60c0 .553.448 1 1 1h60c.552 0 1-.447 1-1v-60c0-.553-.448-1-1-1zm-1 42.586-6.5 6.5-1.586-1.586 8.086-8.086zm0 2.828v10.172l-5.086-5.086zm-4.414 14.586h-10.172l5.086-5.086zm-13 0h-3.172l8.086-8.086 1.586 1.586zm-40.586-40.586 6.5-6.5 1.586 1.586-8.086 8.086zm0-2.828v-10.172l5.086 5.086zm4.414-14.586h10.172l-5.086 5.086zm13 0h3.172l-8.086 8.086-1.586-1.586zm39.192 16.019-1.568 1.604-14.662-14.661 1.604-1.568zm-3.692-6.519 5.086-5.086v10.171zm4.143 26.029-1.644 1.644-15.229-14.943 1.592-1.592zm-19.923 19.923-1.618 1.618-14.885-15.287 1.59-1.59zm-17.706-1.438-5.514-5.514 5.303-5.303 5.402 5.548zm-19.428-14.389v-3.203l6.479-6.307 1.586 1.629zm2.946-19.157 14.912 15.26-1.582 1.582-14.885-15.287zm16.276 3.168 5.364 5.364-5.313 5.313-5.362-5.487zm-14.139 5.045-5.083 4.948v-10.168zm4.377 4.495 5.403 5.548-5.363 5.362-5.538-5.538zm16.54-2.762 1.586 1.586-15.086 15.086-1.586-1.586zm-2.364 8.364 5.364-5.364 5.364 5.364-5.364 5.489zm12.126-1.43-15.109-15.11 1.604-1.567 15.073 15.072zm-15.294-34.402 1.555-1.555 15.282 14.89-1.582 1.582zm18.478 1.414 5.14 5.14-5.367 5.367-5.27-5.135zm-6.946 23.226-1.586-1.586 15.086-15.086 1.586 1.586zm2.308-8.308-5.308 5.308-5.314-5.313 5.31-5.189zm4.42 15.035-5.314-5.313 5.356-5.356 5.301 5.201zm4.462-15.089 5.31-5.31 5.14 5.14-5.182 5.303zm.225-19.224h10.171l-5.086 5.086zm-11.399 8.337-1.585-1.544 6.975-6.793h3.14zm-3.019-2.942-5.537-5.395h11.078zm-9.944-1.034 5.492 5.37-5.269 5.131-5.362-5.362zm6.923 6.769 1.59 1.555-15.053 14.711-1.581-1.618zm-16.442 13.217-5.174-5.293 5.14-5.14 5.303 5.303zm-9.534 19.067 5.086 5.086-5.086 5.086zm.928-1.9 1.604-1.568 15.493 15.493-1.574 1.598zm13.658 16.486h-10.172l5.086-5.086zm11.429-7.822 1.59 1.633-6.028 6.189h-3.268zm2.985 3.065 4.631 4.757h-9.264zm9.549.794-5.17-5.29 5.404-5.55 5.303 5.303zm-6.568-6.72-1.582-1.619 15.1-15.451 1.587 1.557zm16.532-14.113 5.486 5.383-5.5 5.5-5.362-5.362zm9.487.452-5.094-4.963 5.094-5.232zm0-13.061-6.525 6.702-1.584-1.544 8.109-8.298zm0-19.009-6.5 6.5-1.586-1.586 6.5-6.5h1.586zm-56.414-1.586 16.257 16.257-1.607 1.565-16.236-16.236v-1.586zm-1.586 56.414 6.5-6.5 1.586 1.586-6.5 6.5h-1.586zm56.414 1.586-16.236-16.236 1.565-1.607 16.257 16.257v1.586z"></path></g></svg>