<!-- icon666.com - MILLIONS vector ICONS FREE --><svg id="Layer_1" enable-background="new 0 0 53 53" viewBox="0 0 53 53" xmlns="http://www.w3.org/2000/svg"><g id="_x31_40"><path d="m16.4716549 30.1298409c-1.2758379-.1676502-2.3670282.6889839-2.3670282 2.7187347-.0128708 2.7933693 1.995265 6.1797562 4.3480005 7.5374374 2.2235699 1.2831612 3.8379402.3081245 3.8379402-2.197422.0162392-3.5758476-3.1767273-7.7263241-5.8189125-8.0587501zm1.7202816 7.591629c-1.0538197-.608429-1.9091454-2.0898781-1.9056988-3.3008156.0033836-1.2109375.8643055-1.6972504 1.9181252-1.0888214 1.0575943.6106415 1.9054375 2.0834389 1.901989 3.2943726-.0034466 1.2109374-.8568211 1.7059059-1.9144154 1.0952644z"></path><path d="m13.1198988 33.9211998c-.2356653-1.6966476.0422916-3.5968418 1.4973249-4.4715481.8300858-.5002251 16.4859447-9.5903873 24.6843586-14.3563633l-5.1294174-2.9722691c-.1655769-.0959616-.3699875-.095767-.5353699.0005856l-30.8720221 17.9775276c-.3507311.2042198-.3535938.7099209-.0051396.918108l12.0080719 7.1734333c-.8255627-1.2716598-1.4257576-2.7274704-1.6478064-4.269474z"></path><path d="m46.1520004 14.2849998c-1.0763321-.6224813-2.061058-.737505-2.768898-.3289366-2.7109985 1.5762415 9.7306099-5.6576099-26.1939144 15.2297754 3.6114712.9949417 6.9598331 6.5711651 6.0090771 10.3741894l26.2097893-15.2367382c.6922264-.4064865 1.0804939-1.3058567 1.0919456-2.5310421 0-2.7574462-1.9507179-6.1274842-4.3479996-7.5072479z"></path></g></svg>